<?xml version="1.0" encoding="UTF-8" standalone="no"?>
<svg
   width="135.06674mm"
   height="83.864037mm"
   viewBox="0 0 135.06674 83.864037"
   xmlns="http://www.w3.org/2000/svg"
   xmlns:svg="http://www.w3.org/2000/svg">
   <g transform="translate(-26.499806,-31.522098)">
         <path d="m 35.940285,71.322465 q 2.325439,0 2.325439,1.894802 0,1.421101 -2.153184,2.153183 -3.703476,1.334974 -3.703476,4.780068 0,2.756075 2.153184,4.306367 1.851738,1.29191 4.69394,1.29191 5.684404,0 9.947708,-3.315903 2.669947,-2.110119 2.669947,-5.339895 0,-1.980929 -0.775146,-3.574284 -0.818209,-1.63642 -2.497693,-4.134113 -2.58382,-3.87573 -4.34943,-7.062442 -1.980929,-3.531221 -1.980929,-6.933251 0,-8.052906 7.966779,-15.072284 4.22024,-3.660412 9.301753,-5.942787 4.220239,-1.851738 8.139033,-1.851738 2.540757,0 4.306367,1.334974 2.153184,1.593356 2.153184,4.349431 0,4.306367 -4.650876,9.301753 -4.392495,4.69394 -10.249154,7.665333 -2.92833,1.464165 -4.435558,1.464165 -0.990464,0 -1.765611,-0.81821 -0.516764,-0.559828 -0.516764,-1.248846 0,-1.593356 2.842203,-2.583821 5.210704,-1.851737 9.215625,-5.210704 5.167641,-4.306367 5.167641,-7.536142 0,-1.248846 -1.033528,-2.023993 -0.81821,-0.602891 -1.937866,-0.602891 -2.971393,0 -7.450015,2.282375 -6.028913,3.05752 -9.474007,7.880651 -3.014457,4.177176 -3.014457,8.139034 0,2.885266 1.593356,5.942787 1.334974,2.454629 3.40203,5.555213 1.980929,2.971393 3.358966,5.51215 1.593356,3.014457 1.593356,5.641341 0,5.081513 -5.813596,9.000307 -4.952322,3.272839 -11.196554,3.272839 -6.158105,0 -9.646262,-3.40203 -2.626884,-2.58382 -2.626884,-5.942787 0,-3.746539 2.497693,-6.287296 1.507228,-1.550292 3.574284,-2.325438 1.421102,-0.559828 2.368502,-0.559828 z M 77.367538,60.212038 q -2.799139,4.349431 -5.16764,9.73239 -3.40203,7.665333 -3.40203,11.454936 0,1.076592 0.430636,1.63642 0.473701,0.559827 1.378038,0.559827 2.153183,0 5.210704,-4.047985 1.937865,-2.497692 3.445093,-4.995385 0.81821,-1.421101 1.765611,-1.421101 0.559828,0 0.947401,0.387573 0.344509,0.387573 0.344509,0.775146 0,1.593355 -4.177176,7.105505 -4.995386,6.631806 -9.129498,6.631806 -2.196247,0 -3.660412,-2.023993 -0.904337,-1.29191 -0.904337,-3.660412 0,-5.210704 3.014457,-12.143955 0.732082,-1.722547 4.047985,-8.311288 -1.162719,0.301445 -1.765611,0.301445 -0.904337,0 -1.593355,-0.430636 -0.947401,-0.602892 -0.947401,-1.507229 0,-1.076592 1.248846,-1.722547 0.34451,-0.172254 3.186712,-0.559827 1.033528,-0.172255 3.014457,-0.81821 1.507228,-2.713011 4.909258,-7.363888 1.894802,-2.58382 2.626884,-3.358966 1.033528,-1.076592 1.808674,-1.076592 0.559828,0 1.119656,0.602892 0.516764,0.559827 0.516764,1.119655 0,1.119655 -2.411566,4.435558 -1.593356,2.153184 -2.368502,3.488157 4.780068,-1.29191 6.847124,-1.29191 2.368502,0 2.368502,1.980929 0,0.990464 -0.81821,1.464165 -0.430637,0.258382 -2.239311,0.430637 -0.732082,-0.04306 -6.502614,1.636419 -1.593356,0.4737 -3.143648,0.990464 z M 98.59793,75.887214 q -3.832667,4.521686 -6.115041,6.717933 -4.521686,4.306367 -7.536143,4.306367 -1.464165,0 -2.325438,-1.076592 -0.645955,-0.861273 -0.645955,-2.153183 0,-4.650877 5.51215,-12.359274 5.598277,-7.837588 8.09597,-7.837588 0.689019,0 1.205783,0.602892 0.4737,0.4737 0.4737,1.119655 0,0.947401 -0.516764,1.679483 -0.4737,0.689019 -2.799139,3.143648 -2.454629,2.540757 -4.521685,5.51215 -2.368502,3.358966 -2.368502,4.909259 0,0.904337 0.861274,0.904337 1.722546,0 6.45955,-4.69394 2.971393,-2.971394 4.650876,-4.995386 0.34451,-0.430637 3.014454,-4.091049 2.41157,-3.229775 2.9714,-3.832667 1.29191,-1.507228 2.41156,-1.507228 0.68902,0 1.24885,0.602891 0.51676,0.559828 0.51676,1.29191 0,1.248847 -1.72254,4.177176 -2.06706,3.574285 -3.78961,6.674869 -2.71301,4.823131 -4.177173,8.612734 2.756073,-1.593355 5.038453,-3.918794 3.87573,-3.87573 4.737,-5.770531 0.81821,-1.722547 1.67948,-1.722547 1.20579,0 1.20579,1.205783 0,2.282374 -3.87573,6.80406 -4.65088,5.426022 -11.454941,9.215625 -3.617348,8.698861 -6.847123,14.426333 -6.028914,10.5506 -12.445401,10.5506 -2.626884,0 -4.22024,-2.024 -1.248846,-1.55029 -1.248846,-3.91879 0,-6.71793 9.430944,-13.737312 2.756075,-2.067056 8.182097,-5.16764 2.196247,-1.248846 3.445094,-2.023993 0.775146,-1.980928 2.368501,-5.253767 1.765611,-3.531221 3.100585,-6.373424 z m -7.923716,16.924023 q -4.564749,2.325438 -9.344816,6.631805 -4.823131,4.435558 -4.823131,8.268228 0,0.81821 0.4737,1.37803 0.645955,0.77515 1.679483,0.77515 3.229776,0 7.14857,-6.761 0.645955,-1.11965 3.531221,-7.450011 0.602891,-1.29191 1.334973,-2.842202 z M 119.95751,73.647904 q -1.29191,3.358966 -1.93786,5.426022 -0.64596,2.067056 -0.64596,2.885266 0,1.076592 1.03353,1.076592 1.55029,0 4.00492,-2.92833 1.16272,-1.421101 3.44509,-5.124577 0.90434,-1.464164 1.8948,-1.464164 1.11966,0 1.11966,1.076591 0,1.851738 -4.2633,7.493079 -4.43556,5.899723 -8.22516,5.899723 -1.63642,0 -2.66995,-1.378038 -0.73208,-0.990464 -0.73208,-2.411565 0,-2.411566 1.46416,-6.674869 1.46417,-4.263303 4.34943,-10.378345 7.40695,-15.545985 15.11535,-25.622883 6.1581,-8.095971 10.20609,-8.095971 1.29191,0 2.11012,0.990465 0.86127,0.990464 0.86127,2.282374 0,6.028914 -10.76592,20.067671 -4.82313,6.244232 -11.54106,12.488464 -1.76561,1.63642 -4.82313,4.392495 z m 3.05752,-6.847124 q 8.95724,-7.665333 16.01969,-19.378652 3.66041,-6.071977 3.66041,-8.052906 0,-0.947401 -0.81821,-0.947401 -2.3685,0 -8.61274,9.430944 -5.16764,7.751461 -10.24915,18.948015 z m 16.66564,6.976315 q 4.22024,-4.521686 9.73239,-8.828053 1.98093,-1.550292 4.22024,-2.885266 1.11965,-0.645955 1.4211,-0.645955 0.64595,0 1.29191,0.947401 0.38757,0.516764 0.38757,0.947401 0,0.775146 -1.63642,2.11012 -4.39249,3.488157 -4.39249,5.253767 0,0.990465 1.11965,0.990465 1.85174,0 6.37343,-3.057521 0.77514,-0.516764 1.29191,-0.516764 0.34451,0 0.68902,0.34451 0.38757,0.387573 0.38757,0.818209 0,1.29191 -3.61735,3.961858 -3.7896,2.842202 -7.19163,2.842202 -1.37804,0 -2.54076,-0.732082 -0.99046,-0.602892 -0.99046,-2.153184 0,-1.076592 0.90433,-2.454629 -3.40203,2.411566 -8.00984,8.268225 -2.66995,3.617348 -5.29683,8.91418 -0.99046,1.980928 -2.45463,1.980928 -1.59335,0 -1.59335,-1.507228 0,-1.464165 2.49769,-7.837588 3.70347,-9.474008 7.75146,-14.684712 2.49769,-3.229775 4.17717,-3.229775 0.55983,0 1.03353,0.344509 0.55983,0.430637 0.55983,1.076592 0,0.645955 -0.86127,1.808674 -0.17226,0.215319 -2.28238,2.885266 -1.93786,2.540757 -2.97139,5.03845 z"/>
   </g>
</svg>