<?xml version="1.0" encoding="UTF-8"?>
<!-- Created with Inkscape (http://www.inkscape.org/) -->
<svg width="32.791mm" height="30.465mm" version="1.1" viewBox="0 0 32.791 30.465" xmlns="http://www.w3.org/2000/svg" xmlns:xlink="http://www.w3.org/1999/xlink">
 <defs>
  <linearGradient id="linearGradient20">
   <stop stop-color="#f00" offset=".77778"/>
   <stop stop-color="#00f" offset="1"/>
  </linearGradient>
  <linearGradient id="linearGradient17">
   <stop stop-color="#f00" offset=".76889"/>
   <stop stop-color="#00f" offset="1"/>
  </linearGradient>
  <linearGradient id="linearGradient19" x1="-3.323e-6" x2="135.07" y1="41.932" y2="41.932" gradientUnits="userSpaceOnUse" xlink:href="#linearGradient17"/>
  <linearGradient id="linearGradient24" x1="-3.323e-6" x2="135.07" y1="41.932" y2="41.932" gradientUnits="userSpaceOnUse" xlink:href="#linearGradient20"/>
 </defs>
 <g transform="translate(-102.28 -28.896)">
  <g stroke-linecap="round" stroke-linejoin="round" stroke-miterlimit="1" stroke-width="2" aria-label="Stylr">
   <path d="m9.4405 39.8q2.3254 0 2.3254 1.8948 0 1.4211-2.1532 2.1532-3.7035 1.335-3.7035 4.7801 0 2.7561 2.1532 4.3064 1.8517 1.2919 4.6939 1.2919 5.6844 0 9.9477-3.3159 2.6699-2.1101 2.6699-5.3399 0-1.9809-0.77515-3.5743-0.81821-1.6364-2.4977-4.1341-2.5838-3.8757-4.3494-7.0624-1.9809-3.5312-1.9809-6.9333 0-8.0529 7.9668-15.072 4.2202-3.6604 9.3018-5.9428 4.2202-1.8517 8.139-1.8517 2.5408 0 4.3064 1.335 2.1532 1.5934 2.1532 4.3494 0 4.3064-4.6509 9.3018-4.3925 4.6939-10.249 7.6653-2.9283 1.4642-4.4356 1.4642-0.99046 0-1.7656-0.81821-0.51676-0.55983-0.51676-1.2488 0-1.5934 2.8422-2.5838 5.2107-1.8517 9.2156-5.2107 5.1676-4.3064 5.1676-7.5361 0-1.2488-1.0335-2.024-0.81821-0.60289-1.9379-0.60289-2.9714 0-7.45 2.2824-6.0289 3.0575-9.474 7.8807-3.0145 4.1772-3.0145 8.139 0 2.8853 1.5934 5.9428 1.335 2.4546 3.402 5.5552 1.9809 2.9714 3.359 5.5122 1.5934 3.0145 1.5934 5.6413 0 5.0815-5.8136 9.0003-4.9523 3.2728-11.197 3.2728-6.1581 0-9.6463-3.402-2.6269-2.5838-2.6269-5.9428 0-3.7465 2.4977-6.2873 1.5072-1.5503 3.5743-2.3254 1.4211-0.55983 2.3685-0.55983zm41.427-11.11q-2.7991 4.3494-5.1676 9.7324-3.402 7.6653-3.402 11.455 0 1.0766 0.43064 1.6364 0.4737 0.55983 1.378 0.55983 2.1532 0 5.2107-4.048 1.9379-2.4977 3.4451-4.9954 0.81821-1.4211 1.7656-1.4211 0.55983 0 0.9474 0.38757 0.34451 0.38757 0.34451 0.77515 0 1.5934-4.1772 7.1055-4.9954 6.6318-9.1295 6.6318-2.1962 0-3.6604-2.024-0.90434-1.2919-0.90434-3.6604 0-5.2107 3.0145-12.144 0.73208-1.7225 4.048-8.3113-1.1627 0.30145-1.7656 0.30145-0.90434 0-1.5934-0.43064-0.9474-0.60289-0.9474-1.5072 0-1.0766 1.2488-1.7225 0.34451-0.17226 3.1867-0.55983 1.0335-0.17226 3.0145-0.81821 1.5072-2.713 4.9093-7.3639 1.8948-2.5838 2.6269-3.359 1.0335-1.0766 1.8087-1.0766 0.55983 0 1.1197 0.60289 0.51676 0.55983 0.51676 1.1197 0 1.1197-2.4116 4.4356-1.5934 2.1532-2.3685 3.4882 4.7801-1.2919 6.8471-1.2919 2.3685 0 2.3685 1.9809 0 0.99046-0.81821 1.4642-0.43064 0.25838-2.2393 0.43064-0.73208-0.04306-6.5026 1.6364-1.5934 0.4737-3.1436 0.99046zm21.23 15.675q-3.8327 4.5217-6.115 6.7179-4.5217 4.3064-7.5361 4.3064-1.4642 0-2.3254-1.0766-0.64596-0.86127-0.64596-2.1532 0-4.6509 5.5122-12.359 5.5983-7.8376 8.096-7.8376 0.68902 0 1.2058 0.60289 0.4737 0.4737 0.4737 1.1197 0 0.9474-0.51676 1.6795-0.4737 0.68902-2.7991 3.1436-2.4546 2.5408-4.5217 5.5122-2.3685 3.359-2.3685 4.9093 0 0.90434 0.86127 0.90434 1.7225 0 6.4596-4.6939 2.9714-2.9714 4.6509-4.9954 0.34451-0.43064 3.0145-4.091 2.4116-3.2298 2.9714-3.8327 1.2919-1.5072 2.4116-1.5072 0.68902 0 1.2488 0.60289 0.51676 0.55983 0.51676 1.2919 0 1.2488-1.7225 4.1772-2.0671 3.5743-3.7896 6.6749-2.713 4.8231-4.1772 8.6127 2.7561-1.5934 5.0384-3.9188 3.8757-3.8757 4.737-5.7705 0.81821-1.7225 1.6795-1.7225 1.2058 0 1.2058 1.2058 0 2.2824-3.8757 6.8041-4.6509 5.426-11.455 9.2156-3.6173 8.6989-6.8471 14.426-6.0289 10.551-12.445 10.551-2.6269 0-4.2202-2.024-1.2488-1.5503-1.2488-3.9188 0-6.7179 9.4309-13.737 2.7561-2.0671 8.1821-5.1676 2.1962-1.2488 3.4451-2.024 0.77515-1.9809 2.3685-5.2538 1.7656-3.5312 3.1006-6.3734zm-7.9237 16.924q-4.5647 2.3254-9.3448 6.6318-4.8231 4.4356-4.8231 8.2682 0 0.81821 0.4737 1.378 0.64596 0.77515 1.6795 0.77515 3.2298 0 7.1486-6.761 0.64596-1.1197 3.5312-7.45 0.60289-1.2919 1.335-2.8422zm29.283-19.163q-1.2919 3.359-1.9379 5.426-0.64596 2.0671-0.64596 2.8853 0 1.0766 1.0335 1.0766 1.5503 0 4.0049-2.9283 1.1627-1.4211 3.4451-5.1246 0.90434-1.4642 1.8948-1.4642 1.1196 0 1.1196 1.0766 0 1.8517-4.2633 7.4931-4.4356 5.8997-8.2252 5.8997-1.6364 0-2.6699-1.378-0.73208-0.99046-0.73208-2.4116 0-2.4116 1.4642-6.6749 1.4642-4.2633 4.3494-10.378 7.407-15.546 15.115-25.623 6.1581-8.096 10.206-8.096 1.2919 0 2.1101 0.99046 0.86127 0.99046 0.86127 2.2824 0 6.0289-10.766 20.068-4.8231 6.2442-11.541 12.488-1.7656 1.6364-4.8231 4.3925zm3.0575-6.8471q8.9572-7.6653 16.02-19.379 3.6604-6.072 3.6604-8.0529 0-0.9474-0.81821-0.9474-2.3685 0-8.6127 9.4309-5.1676 7.7515-10.249 18.948z" display="none" stroke="#000"/>
   <path d="m113.18 42.255q4.2202-4.5217 9.7324-8.8281 1.9809-1.5503 4.2202-2.8853 1.1196-0.64596 1.4211-0.64596 0.64596 0 1.2919 0.9474 0.38757 0.51676 0.38757 0.9474 0 0.77515-1.6364 2.1101-4.3925 3.4882-4.3925 5.2538 0 0.99046 1.1197 0.99046 1.8517 0 6.3734-3.0575 0.77514-0.51676 1.2919-0.51676 0.34451 0 0.68902 0.34451 0.38757 0.38757 0.38757 0.81821 0 1.2919-3.6174 3.9619-3.7896 2.8422-7.1916 2.8422-1.378 0-2.5408-0.73208-0.99046-0.60289-0.99046-2.1532 0-1.0766 0.90434-2.4546-3.402 2.4116-8.0098 8.2682-2.6699 3.6173-5.2968 8.9142-0.99046 1.9809-2.4546 1.9809-1.5934 0-1.5934-1.5072 0-1.4642 2.4977-7.8376 3.7035-9.474 7.7515-14.685 2.4977-3.2298 4.1772-3.2298 0.55982 0 1.0335 0.34451 0.55983 0.43064 0.55983 1.0766t-0.86127 1.8087q-0.17226 0.21532-2.2824 2.8853-1.9379 2.5408-2.9714 5.0384z" fill="url(#linearGradient19)" stroke="url(#linearGradient24)"/>
  </g>
 </g>
</svg>
