<?xml version="1.0" encoding="UTF-8" standalone="no"?>
<!-- Created with Inkscape (http://www.inkscape.org/) -->

<svg
   width="135.06674mm"
   height="83.864037mm"
   viewBox="0 0 135.06674 83.864037"
   version="1.1"
   id="svg1"
   xmlns:xlink="http://www.w3.org/1999/xlink"
   xmlns="http://www.w3.org/2000/svg"
   xmlns:svg="http://www.w3.org/2000/svg">
  <defs
     id="defs1">
    <linearGradient
       id="linearGradient20">
      <stop
         style="stop-color:#ff0000;stop-opacity:1;"
         offset="0.77777779"
         id="stop20" />
      <stop
         style="stop-color:#0000ff;stop-opacity:1;"
         offset="1"
         id="stop21" />
    </linearGradient>
    <linearGradient
       id="linearGradient17">
      <stop
         style="stop-color:#ff0000;stop-opacity:1;"
         offset="0.76888889"
         id="stop17" />
      <stop
         style="stop-color:#0000ff;stop-opacity:1;"
         offset="1"
         id="stop18" />
    </linearGradient>
    <linearGradient
       xlink:href="#linearGradient17"
       id="linearGradient19"
       gradientUnits="userSpaceOnUse"
       x1="-3.3229589e-06"
       y1="41.932018"
       x2="135.06674"
       y2="41.932018" />
    <linearGradient
       xlink:href="#linearGradient20"
       id="linearGradient24"
       gradientUnits="userSpaceOnUse"
       x1="-3.3229589e-06"
       y1="41.932018"
       x2="135.06674"
       y2="41.932018" />
    <linearGradient
       xlink:href="#linearGradient17"
       id="linearGradient25"
       gradientUnits="userSpaceOnUse"
       x1="-3.3229589e-06"
       y1="41.932018"
       x2="135.06674"
       y2="41.932018" />
    <linearGradient
       xlink:href="#linearGradient20"
       id="linearGradient26"
       gradientUnits="userSpaceOnUse"
       x1="-3.3229589e-06"
       y1="41.932018"
       x2="135.06674"
       y2="41.932018" />
  </defs>
  <g
     id="layer1">
    <g
       id="text1"
       style="font-size:88.1944px;line-height:0;font-family:'Freestyle Script';-inkscape-font-specification:'Freestyle Script, Normal';text-align:center;text-anchor:middle;fill:url(#linearGradient19);stroke:url(#linearGradient24);stroke-width:2;stroke-linecap:round;stroke-linejoin:round;stroke-miterlimit:1"
       aria-label="Stylr">
      <path
         style="fill:#000000;stroke:#000000"
         d="m 9.4404761,39.800367 q 2.3254379,0 2.3254379,1.894801 0,1.421101 -2.1531832,2.153184 -3.7034757,1.334974 -3.7034757,4.780067 0,2.756075 2.1531835,4.306367 1.8517378,1.29191 4.6939404,1.29191 5.684404,0 9.947708,-3.315902 2.669947,-2.11012 2.669947,-5.339895 0,-1.980929 -0.775146,-3.574285 -0.81821,-1.636419 -2.497693,-4.134112 -2.58382,-3.875731 -4.349431,-7.062442 -1.980928,-3.531221 -1.980928,-6.933251 0,-8.052907 7.966779,-15.0722848 4.220239,-3.660412 9.301752,-5.9427865 4.22024,-1.85173785 8.139034,-1.85173785 2.540757,0 4.306367,1.33497375 2.153184,1.5933558 2.153184,4.3494307 0,4.3063667 -4.650877,9.3017527 -4.392494,4.69394 -10.249153,7.665333 -2.92833,1.464165 -4.435558,1.464165 -0.990465,0 -1.765611,-0.818209 -0.516764,-0.559828 -0.516764,-1.248847 0,-1.593356 2.842202,-2.58382 5.210705,-1.851738 9.215626,-5.210704 5.16764,-4.306367 5.16764,-7.5361426 0,-1.2488464 -1.033528,-2.0239925 -0.818209,-0.6028914 -1.937865,-0.6028914 -2.971393,0 -7.450015,2.2823746 -6.028914,3.0575209 -9.474007,7.8806519 -3.014457,4.177176 -3.014457,8.139033 0,2.885266 1.593355,5.942787 1.334974,2.454629 3.40203,5.555213 1.980929,2.971394 3.358967,5.51215 1.593356,3.014457 1.593356,5.641341 0,5.081513 -5.813596,9.000307 -4.952322,3.272839 -11.196554,3.272839 -6.1581051,0 -9.6462624,-3.40203 -2.62688392,-2.58382 -2.62688392,-5.942786 0,-3.74654 2.49769292,-6.287296 1.5072284,-1.550292 3.5742846,-2.325438 1.4211011,-0.559828 2.3685019,-0.559828 z M 50.867729,28.68994 q -2.799139,4.349431 -5.167641,9.732389 -3.40203,7.665334 -3.40203,11.454937 0,1.076592 0.430637,1.636419 0.4737,0.559828 1.378037,0.559828 2.153184,0 5.210705,-4.047985 1.937865,-2.497693 3.445093,-4.995386 0.81821,-1.421101 1.765611,-1.421101 0.559827,0 0.9474,0.387573 0.34451,0.387573 0.34451,0.775146 0,1.593356 -4.177176,7.105506 -4.995386,6.631805 -9.129498,6.631805 -2.196248,0 -3.660412,-2.023993 -0.904337,-1.29191 -0.904337,-3.660411 0,-5.210705 3.014457,-12.143956 0.732082,-1.722546 4.047985,-8.311288 -1.16272,0.301446 -1.765611,0.301446 -0.904337,0 -1.593356,-0.430637 -0.9474,-0.602891 -0.9474,-1.507228 0,-1.076592 1.248846,-1.722547 0.344509,-0.172255 3.186712,-0.559828 1.033528,-0.172255 3.014456,-0.81821 1.507229,-2.713011 4.909259,-7.363887 1.894801,-2.583821 2.626884,-3.358967 1.033528,-1.076591 1.808674,-1.076591 0.559828,0 1.119655,0.602891 0.516764,0.559828 0.516764,1.119655 0,1.119656 -2.411565,4.435558 -1.593356,2.153184 -2.368502,3.488158 4.780067,-1.29191 6.847124,-1.29191 2.368501,0 2.368501,1.980929 0,0.990464 -0.818209,1.464164 -0.430637,0.258382 -2.239311,0.430637 -0.732083,-0.04306 -6.502614,1.636419 -1.593356,0.473701 -3.143648,0.990465 z M 72.09812,44.365116 q -3.832666,4.521685 -6.115041,6.717933 -4.521685,4.306367 -7.536142,4.306367 -1.464165,0 -2.325438,-1.076592 -0.645955,-0.861274 -0.645955,-2.153184 0,-4.650876 5.51215,-12.359273 5.598277,-7.837588 8.09597,-7.837588 0.689018,0 1.205782,0.602891 0.473701,0.473701 0.473701,1.119656 0,0.9474 -0.516764,1.679483 -0.473701,0.689019 -2.799139,3.143648 -2.454629,2.540756 -4.521685,5.51215 -2.368502,3.358966 -2.368502,4.909258 0,0.904337 0.861273,0.904337 1.722547,0 6.459551,-4.69394 2.971393,-2.971393 4.650876,-4.995386 0.34451,-0.430636 3.014457,-4.091048 2.411566,-3.229776 2.971393,-3.832667 1.29191,-1.507229 2.411566,-1.507229 0.689019,0 1.248846,0.602892 0.516764,0.559828 0.516764,1.29191 0,1.248846 -1.722546,4.177176 -2.067057,3.574285 -3.789603,6.674869 -2.713012,4.823131 -4.177176,8.612734 2.756074,-1.593356 5.038449,-3.918794 3.87573,-3.87573 4.737004,-5.770532 0.818209,-1.722547 1.679483,-1.722547 1.205783,0 1.205783,1.205783 0,2.282375 -3.875731,6.80406 -4.650876,5.426022 -11.454936,9.215625 -3.617348,8.698862 -6.847124,14.42633 -6.028913,10.550599 -12.4454,10.550599 -2.626884,0 -4.22024,-2.023992 -1.248846,-1.550292 -1.248846,-3.918794 0,-6.717933 9.430943,-13.737311 2.756075,-2.067056 8.182098,-5.167641 2.196247,-1.248846 3.445093,-2.023992 0.775146,-1.980929 2.368502,-5.253768 1.765611,-3.531221 3.100584,-6.373423 z m -7.923715,16.924022 q -4.564749,2.325439 -9.344816,6.631806 -4.823131,4.435558 -4.823131,8.268224 0,0.81821 0.4737,1.378038 0.645955,0.775146 1.679483,0.775146 3.229775,0 7.148569,-6.760996 0.645955,-1.119656 3.531221,-7.450015 0.602892,-1.29191 1.334974,-2.842203 z M 93.457701,42.125805 q -1.29191,3.358966 -1.937865,5.426023 -0.645955,2.067056 -0.645955,2.885265 0,1.076592 1.033528,1.076592 1.550292,0 4.004921,-2.928329 1.162719,-1.421101 3.445094,-5.124577 0.904336,-1.464165 1.894806,-1.464165 1.11965,0 1.11965,1.076592 0,1.851738 -4.263303,7.493078 -4.435558,5.899723 -8.225161,5.899723 -1.636419,0 -2.669947,-1.378037 -0.732083,-0.990465 -0.732083,-2.411566 0,-2.411565 1.464165,-6.674869 1.464165,-4.263303 4.349431,-10.378344 7.406951,-15.545985 15.115348,-25.622884 6.1581,-8.0959701 10.20609,-8.0959701 1.29191,0 2.11012,0.9904644 0.86127,0.9904645 0.86127,2.2823746 0,6.0289141 -10.76591,20.0676701 -4.82314,6.244232 -11.541068,12.488465 -1.76561,1.636419 -4.823131,4.392494 z m 3.057521,-6.847124 q 8.957238,-7.665333 16.019688,-19.378651 3.66041,-6.0719777 3.66041,-8.0529066 0,-0.9474007 -0.81821,-0.9474007 -2.3685,0 -8.61273,9.4309443 -5.16765,7.75146 -10.249158,18.948014 z"
         id="path24" />
      <path
         d="m 113.18086,42.254996 q 4.22024,-4.521685 9.73239,-8.828052 1.98093,-1.550292 4.22024,-2.885266 1.11965,-0.645955 1.4211,-0.645955 0.64596,0 1.29191,0.9474 0.38757,0.516764 0.38757,0.947401 0,0.775146 -1.63642,2.11012 -4.39249,3.488157 -4.39249,5.253768 0,0.990464 1.11966,0.990464 1.85173,0 6.37342,-3.05752 0.77514,-0.516764 1.29191,-0.516764 0.34451,0 0.68902,0.344509 0.38757,0.387573 0.38757,0.81821 0,1.29191 -3.61735,3.961857 -3.7896,2.842203 -7.19163,2.842203 -1.37804,0 -2.54076,-0.732083 -0.99046,-0.602891 -0.99046,-2.153183 0,-1.076592 0.90434,-2.45463 -3.40203,2.411566 -8.00985,8.268225 -2.66994,3.617349 -5.29683,8.91418 -0.99046,1.980929 -2.45463,1.980929 -1.59335,0 -1.59335,-1.507229 0,-1.464164 2.49769,-7.837588 3.70347,-9.474007 7.75146,-14.684711 2.49769,-3.229776 4.17718,-3.229776 0.55982,0 1.03352,0.34451 0.55983,0.430637 0.55983,1.076592 0,0.645955 -0.86127,1.808674 -0.17226,0.215318 -2.28238,2.885266 -1.93786,2.540756 -2.97139,5.038449 z"
         id="path25"
         style="fill:url(#linearGradient25);stroke:url(#linearGradient26)" />
    </g>
  </g>
</svg>
